<?xml version="1.0" standalone="no"?><!DOCTYPE svg PUBLIC "-//W3C//DTD SVG 1.1//EN" "http://www.w3.org/Graphics/SVG/1.1/DTD/svg11.dtd"><svg t="1488855848402" class="icon" style="" viewBox="0 0 1024 1024" version="1.1" xmlns="http://www.w3.org/2000/svg" p-id="1629" xmlns:xlink="http://www.w3.org/1999/xlink" width="32" height="32"><defs><style type="text/css"></style></defs><path d="M948.681 430.857l-106.255-226.187-663.874-3.743-5.495 12.274c-3.179 7.095-78.009 174.117-96.597 218.452-10.825 25.799-7.035 56.617 10.132 82.433 23.158 34.826 64.949 54.798 114.649 54.798 49.686 0 81.981-28.029 101.5-60.079 5.13 9.916 11.793 19.697 20.461 28.423 20.87 21.010 48.581 31.657 82.349 31.657 51.063 0 83.631-24.489 103.261-54.396 3.858 6.896 8.611 13.646 14.45 19.951 21.133 22.85 51.241 34.444 89.481 34.444 54.789 0 86.203-23.196 104.196-49.49 3.787 6.145 8.368 12.11 13.882 17.669 20.954 21.113 50.685 31.823 88.403 31.823 52.63 0 96.204-21.079 119.537-57.824 16.623-26.177 20.512-57.665 9.923-80.204zM903.931 488.944c-9.172 14.45-32.381 38.683-84.714 38.683-26.304 0-46.197-6.598-59.117-19.617-16.82-16.96-19.483-41.927-19.492-55.924 0.75-7.434 0.682-12.306 0.669-12.871l-41.065-2.431c-0.080 0.561-0.726 5.455-0.839 12.941-3.382 29.539-19.239 77.9-86.638 77.9-26.269 0-46.188-7.139-59.193-21.193-22.432-24.267-19.683-63.046-19.513-65.307l-41.154-2.877c-0.839 9.152-10.442 89.381-87.329 89.381-76.397 0-78.646-78.939-78.65-87.86l-41.065-2.983c-0.125 0.91-13.459 90.843-84.602 90.843-35.643 0-64.916-13.265-80.287-36.389-9.499-14.279-11.907-30.598-6.442-43.628 15.508-36.976 72.665-164.921 90.706-205.257l610.943 3.441 95.181 202.608c3.879 8.244 2.571 24.826-7.407 40.547z" p-id="1630" fill="#2FBCD3"></path><path d="M827.966 769.791c0 52.093-42.375 94.468-94.468 94.468h-447.28c-52.087 0-94.459-42.375-94.459-94.468v-182.359h-41.258v182.359c0 74.838 60.887 135.725 135.719 135.725h447.28c74.838 0 135.725-60.89 135.725-135.725v-182.359h-41.258v182.359z" p-id="1631" fill="#2FBCD3"></path><path d="M228.104 111.021h565.831v41.258h-565.831v-41.258z" p-id="1632" fill="#2FBCD3"></path></svg>